<svg xmlns="http://www.w3.org/2000/svg" version="1.0" width="512.000000" height="512.000000" preserveAspectRatio="xMidYMid meet"><rect id="backgroundrect" width="100%" height="100%" x="0" y="0" fill="none" stroke="none"/>


<g class="currentLayer" style=""><title>Layer 1</title><g transform="translate(0,512) scale(0.10000000149011612,-0.10000000149011612) " fill="#ffffff" stroke="none" id="svg_1" class="selected" fill-opacity="1">
<path d="M1704 4731 c-304 -75 -553 -353 -644 -720 -116 -467 57 -982 407 -1214 296 -196 643 -162 913 90 214 200 330 490 330 823 0 325 -112 614 -317 815 -190 188 -449 265 -689 206z" id="svg_2" fill="#ffffff" fill-opacity="1"/>
<path d="M4615 2703 c-27 -10 -72 -34 -99 -52 l-48 -34 271 -271 272 -271 30 35 c50 59 73 133 73 235 0 77 -4 99 -28 151 -33 74 -110 152 -186 190 -72 37 -207 44 -285 17z" id="svg_3" fill="#ffffff" fill-opacity="1"/>
<path d="M922 2515 c-79 -17 -170 -64 -247 -125 -75 -59 -245 -235 -306 -315 -131 -171 -254 -403 -325 -610 -32 -95 -37 -123 -38 -205 -1 -87 1 -99 27 -143 49 -83 156 -136 326 -163 176 -28 284 -55 506 -130 237 -81 392 -123 550 -151 83 -15 159 -18 455 -18 423 0 498 10 815 106 l100 31 114 276 c132 318 91 261 430 604 l184 187 -34 56 c-136 225 -390 483 -552 561 -140 67 -257 66 -410 -2 -45 -19 -123 -51 -174 -70 -349 -128 -662 -121 -1007 23 -61 25 -136 56 -166 69 -72 29 -168 37 -248 19z" id="svg_4" fill="#ffffff" fill-opacity="1"/>
<path d="M3729 1873 l-586 -588 -187 -453 c-103 -250 -186 -455 -184 -457 2 -2 208 82 458 186 l455 189 587 587 588 588 -267 267 c-148 148 -270 268 -273 268 -3 0 -269 -264 -591 -587z m-389 -676 c58 -29 83 -74 76 -137 l-4 -45 48 3 c64 5 100 -15 132 -75 55 -103 73 -86 -225 -210 l-262 -110 -43 41 -42 42 104 252 c58 139 108 257 112 263 8 13 46 5 104 -24z" id="svg_5" fill="#ffffff" fill-opacity="1"/>
</g></g></svg>