<svg xmlns="http://www.w3.org/2000/svg" version="1.0" width="512.000000" height="512.000000" preserveAspectRatio="xMidYMid meet"><rect id="backgroundrect" width="100%" height="100%" x="0" y="0" fill="none" stroke="none"/>


<g class="currentLayer" style=""><title>Layer 1</title><g transform="translate(0,512) scale(0.10000000149011612,-0.10000000149011612) " fill="#ffffff" stroke="none" id="svg_1" class="selected" fill-opacity="1">
<path d="M1714.9909915924072,4745 c-202,-44 -386,-179 -515,-378 c-385,-595 -141,-1472 461,-1659 c63,-19 96,-23 205,-23 c115,1 139,4 210,29 c113,39 206,97 302,189 c212,203 323,485 323,817 c0,248 -63,469 -189,660 c-44,68 -158,189 -220,234 c-165,121 -389,172 -577,131 z" id="svg_2" fill="#ffffff" fill-opacity="1"/>
<path d="M4955.990991592407,2691 c-40,-25 -383,-347 -725,-679 c-289,-280 -708,-722 -882,-929 l-102,-121 l-37,31 c-20,18 -117,102 -215,188 c-388,338 -813,665 -878,676 c-76,12 -128,-29 -108,-85 c22,-63 397,-552 661,-862 c264,-309 441,-498 488,-521 c73,-35 142,-37 207,-5 c46,23 88,65 284,284 c405,454 711,844 1230,1569 c238,331 262,382 211,447 c-16,21 -29,26 -62,26 c-24,0 -55,-8 -72,-19 z" id="svg_3" fill="#ffffff" fill-opacity="1"/>
<path d="M936.9909915924072,2529 c-128,-19 -265,-108 -433,-282 c-195,-203 -331,-416 -433,-679 c-126,-322 -100,-474 94,-557 c45,-20 106,-33 341,-76 c50,-9 203,-54 340,-100 c450,-151 603,-178 1010,-178 c194,0 304,5 390,17 c123,16 323,58 349,73 c12,6 4,21 -35,68 c-101,121 -357,442 -414,520 c-33,44 -94,124 -137,178 c-155,195 -183,310 -101,407 c62,74 185,110 254,75 c100,-52 311,-197 484,-334 c130,-102 166,-133 413,-349 c90,-79 168,-142 172,-140 c4,2 57,59 117,128 c61,69 149,167 197,217 c47,51 86,96 86,100 c0,5 -27,62 -60,128 c-115,227 -278,442 -450,595 c-171,150 -275,195 -433,188 c-84,-4 -102,-9 -207,-55 c-261,-116 -395,-148 -620,-147 c-220,0 -364,33 -605,139 c-149,66 -215,79 -319,64 z" id="svg_4" fill="#ffffff" fill-opacity="1"/>
</g></g></svg>