<svg xmlns="http://www.w3.org/2000/svg" version="1.0" width="512.000000" height="512.000000" preserveAspectRatio="xMidYMid meet"><rect id="backgroundrect" width="100%" height="100%" x="0" y="0" fill="none" stroke="none"/>


<g class="currentLayer" style=""><title>Layer 1</title><g transform="translate(0,512) scale(0.10000000149011612,-0.10000000149011612) " fill="#ffffff" stroke="none" id="svg_1" class="selected" fill-opacity="1">
<path d="M3081 4730 c-329 -87 -580 -392 -656 -799 -22 -122 -20 -338 5 -462 46 -226 132 -397 275 -548 311 -328 764 -333 1081 -13 340 343 409 951 159 1398 -187 333 -542 508 -864 424z" id="svg_2" fill="#ffffff" fill-opacity="1"/>
<path d="M969 2704 c-361 -65 -670 -294 -837 -621 -125 -245 -162 -531 -103 -793 138 -610 723 -1005 1341 -905 485 79 872 459 965 947 23 121 21 322 -5 448 -45 222 -143 409 -299 573 -176 186 -397 305 -650 352 -102 18 -307 18 -412 -1z m249 -606 l3 -158 319 0 c276 0 321 -2 334 -16 14 -13 16 -62 16 -379 l0 -364 -22 -15 c-19 -14 -68 -16 -335 -16 l-312 0 -3 -157 -3 -158 -24 -3 c-20 -3 -82 54 -373 345 -225 225 -348 355 -348 368 0 13 123 143 348 368 291 291 351 347 372 345 l25 -3 3 -157z" id="svg_3" fill="#ffffff" fill-opacity="1"/>
<path d="M2304 2516 c-34 -8 -84 -26 -113 -40 l-52 -27 49 -57 c316 -368 399 -875 216 -1332 -19 -48 -55 -122 -79 -165 -25 -43 -45 -80 -45 -81 0 -7 234 -78 344 -104 196 -48 326 -60 626 -60 412 0 558 24 975 164 252 84 359 112 536 140 176 28 284 84 329 171 22 43 25 62 24 140 -2 113 -44 245 -144 450 -114 234 -231 396 -413 571 -157 152 -257 212 -386 234 -96 16 -163 2 -326 -68 -279 -119 -486 -158 -714 -132 -171 19 -286 53 -551 164 -102 42 -187 52 -276 32z" id="svg_4" fill="#ffffff" fill-opacity="1"/>
</g></g></svg>