<svg xmlns="http://www.w3.org/2000/svg" version="1.0" width="512.000000" height="512.000000" preserveAspectRatio="xMidYMid meet"><rect id="backgroundrect" width="100%" height="100%" x="0" y="0" fill="none" stroke="none"/>


<g class="currentLayer" style=""><title>Layer 1</title><g transform="translate(0,512) scale(0.10000000149011612,-0.10000000149011612) " fill="#ffffff" stroke="none" id="svg_1" class="selected" fill-opacity="1">
<path d="M1800,4693.990991592407 c-371,-43 -669,-362 -756,-811 c-23,-117 -23,-337 0,-454 c99,-514 481,-855 902,-807 c280,31 531,235 666,539 c65,148 89,261 95,442 c6,174 -4,272 -43,406 c-108,373 -381,636 -708,681 c-77,11 -90,11 -156,4 z" id="svg_2" fill="#ffffff" fill-opacity="1"/>
<path d="M2985,2786.990991592407 c-154,-38 -226,-133 -181,-239 c21,-51 91,-107 246,-196 c80,-46 185,-109 234,-139 c127,-80 369,-263 359,-272 c-4,-4 -59,-48 -122,-98 c-418,-334 -688,-654 -776,-922 c-28,-83 -26,-228 4,-303 c69,-174 208,-197 318,-53 c18,23 77,119 131,212 c190,329 326,509 637,846 l62,68 l109,-99 c333,-300 686,-721 887,-1057 c75,-126 89,-141 106,-121 c9,11 3,37 -24,112 c-140,387 -430,910 -719,1300 c-45,60 -85,115 -89,121 c-7,12 111,120 274,251 c122,99 331,247 468,330 c172,106 244,178 196,197 c-18,6 -143,-37 -294,-101 c-168,-71 -441,-213 -630,-326 l-174,-104 l-141,141 c-366,368 -644,511 -881,452 z" id="svg_3" fill="#ffffff" fill-opacity="1"/>
<path d="M901,2454.990991592407 c-89,-24 -180,-79 -286,-173 c-226,-199 -409,-462 -524,-750 c-116,-291 -120,-414 -17,-516 c59,-59 125,-87 255,-111 c47,-8 133,-24 190,-35 c57,-11 223,-60 370,-109 c441,-147 551,-165 991,-165 c330,1 385,6 608,56 l92,21 l0,88 c0,112 13,173 61,284 c118,275 360,559 739,867 l43,35 l-144,96 c-79,53 -205,130 -279,171 c-175,98 -234,140 -283,205 c-22,28 -42,52 -46,52 c-24,-1 -122,-35 -206,-73 c-215,-96 -393,-137 -601,-137 c-199,0 -366,39 -599,140 c-60,27 -128,53 -150,59 c-54,15 -149,13 -214,-5 z" id="svg_4" fill="#ffffff" fill-opacity="1"/>
</g></g></svg>