<svg xmlns="http://www.w3.org/2000/svg" version="1.0" width="512.000000" height="512.000000" preserveAspectRatio="xMidYMid meet"><rect id="backgroundrect" width="100%" height="100%" x="0" y="0" fill="none" stroke="none"/>


<g class="currentLayer" style=""><title>Layer 1</title><g transform="translate(0,512) scale(0.10000000149011612,-0.10000000149011612) " fill="#ffffff" stroke="none" id="svg_1" class="" fill-opacity="1">
<path d="M1724 4695 c-309 -67 -567 -345 -660 -712 -36 -144 -49 -292 -35 -423 22 -213 81 -386 182 -541 247 -376 671 -495 1023 -287 88 52 223 181 280 267 134 202 196 416 196 671 0 332 -112 614 -324 818 -191 183 -429 258 -662 207z" id="svg_2" fill="#ffffff" fill-opacity="1"/>
<path d="M3970 2747 c-19 -6 -56 -32 -81 -57 -41 -39 -49 -54 -60 -107 l-13 -63 -231 0 c-128 0 -247 -5 -267 -11 -69 -18 -85 -96 -31 -139 25 -20 43 -20 894 -20 615 0 875 3 892 11 49 22 60 83 23 126 l-24 28 -261 3 -261 3 0 26 c0 78 -56 158 -134 194 -35 16 -66 18 -226 18 -105 -1 -200 -6 -220 -12z m394 -168 c14 -11 26 -29 26 -40 0 -18 -9 -19 -201 -19 l-200 0 3 27 c5 45 36 53 199 53 133 0 149 -2 173 -21z" id="svg_3" fill="#ffffff" fill-opacity="1"/>
<path d="M951 2478 c-129 -14 -272 -107 -447 -290 -187 -196 -324 -412 -424 -670 -126 -322 -100 -474 94 -557 45 -20 106 -33 341 -76 50 -9 203 -54 340 -100 138 -46 305 -97 372 -114 234 -57 541 -80 843 -62 284 17 439 50 785 168 121 41 267 85 324 98 57 13 104 25 106 27 1 2 -12 295 -29 652 l-31 649 -75 69 c-159 148 -286 209 -431 209 -83 1 -112 -8 -308 -91 -395 -166 -730 -159 -1149 27 -135 59 -205 73 -311 61z" id="svg_4" fill="#ffffff" fill-opacity="1"/>
<path d="M3390 2254 l-24 -25 42 -866 c33 -670 46 -872 57 -894 33 -62 -4 -59 721 -59 654 0 662 0 688 21 14 11 31 30 37 42 15 27 100 1732 88 1763 -4 13 -17 28 -28 33 -13 8 -266 11 -789 11 l-769 0 -23 -26z m430 -204 c11 -11 22 -30 24 -42 4 -18 28 -819 38 -1267 2 -69 0 -75 -26 -97 -15 -13 -40 -24 -55 -24 -32 0 -69 31 -76 63 -10 45 -43 1321 -35 1343 18 46 94 60 130 24z m429 -6 c21 -26 21 -34 21 -691 0 -703 0 -710 -45 -727 -47 -18 -112 15 -116 59 -1 11 -1 318 0 683 1 648 1 662 21 682 31 31 93 27 119 -6z m424 -6 c19 -26 19 -29 -1 -693 -22 -727 -20 -706 -81 -720 -38 -8 -89 17 -97 50 -3 13 3 322 15 686 20 660 20 662 43 686 31 33 93 29 121 -9z" id="svg_5" fill="#ffffff" fill-opacity="1"/>
</g></g></svg>