<svg xmlns="http://www.w3.org/2000/svg" version="1.0" width="512.000000" height="512.000000" preserveAspectRatio="xMidYMid meet"><rect id="backgroundrect" width="100%" height="100%" x="0" y="0" fill="none" stroke="none"/>


<g class="currentLayer" style=""><title>Layer 1</title><g transform="translate(0,512) scale(0.10000000149011612,-0.10000000149011612) " fill="#ffffff" stroke="none" id="svg_1" class="selected" fill-opacity="1">
<path d="M1704 4731 c-252 -62 -476 -272 -590 -551 -255 -627 56 -1378 618 -1494 231 -48 456 22 648 201 214 200 330 490 330 823 0 325 -112 614 -317 815 -190 188 -449 265 -689 206z" id="svg_2" fill="#ffffff" fill-opacity="1"/>
<path d="M2996 2481 c-181 -182 -236 -243 -230 -254 5 -9 157 -165 338 -347 l329 -332 -330 -332 c-182 -182 -333 -340 -337 -350 -5 -16 40 -66 231 -258 154 -155 245 -238 258 -238 13 0 133 113 350 330 181 182 334 330 339 330 5 0 157 -147 338 -327 201 -201 337 -329 351 -331 17 -2 73 49 255 231 144 145 232 240 232 253 0 12 -123 142 -335 354 l-335 335 335 335 c217 217 335 342 335 355 0 13 -84 104 -233 253 -177 177 -238 232 -257 232 -19 0 -101 -76 -357 -332 l-333 -333 -333 333 c-217 217 -339 332 -352 332 -13 0 -105 -84 -259 -239z" id="svg_3" fill="#ffffff" fill-opacity="1"/>
<path d="M922 2515 c-79 -17 -170 -64 -247 -125 -75 -59 -245 -235 -306 -315 -131 -171 -254 -403 -325 -610 -32 -95 -37 -123 -38 -205 -1 -87 1 -99 27 -143 49 -83 156 -136 326 -163 177 -28 285 -55 506 -130 237 -81 392 -123 550 -151 129 -23 738 -26 875 -5 97 15 329 69 347 80 10 6 9 19 -4 58 -9 28 -13 62 -10 76 13 52 107 159 354 407 l253 254 -212 215 c-117 118 -242 242 -277 276 -154 149 -153 240 6 407 l74 77 -58 6 c-76 9 -148 -6 -247 -50 -445 -198 -785 -211 -1180 -47 -61 25 -136 56 -166 69 -72 29 -168 37 -248 19z" id="svg_4" fill="#ffffff" fill-opacity="1"/>
</g></g></svg>