<svg xmlns="http://www.w3.org/2000/svg" version="1.0" width="512.000000" height="512.000000" preserveAspectRatio="xMidYMid meet" style=""><rect id="backgroundrect" width="100%" height="100%" x="0" y="0" fill="none" stroke="none"/>


<g class="currentLayer" style=""><title>Layer 1</title><g transform="translate(0,512) scale(0.10000000149011612,-0.10000000149011612) " fill="#ffffff" stroke="none" id="svg_1" class="selected" fill-opacity="1">
<path d="M3255 4454 c-33 -8 -98 -33 -145 -56 -71 -35 -102 -59 -185 -142 -105 -106 -145 -164 -201 -294 -240 -554 26 -1247 526 -1373 68 -17 104 -21 189 -17 184 9 317 71 461 217 122 124 196 259 247 449 24 88 27 114 27 282 0 169 -3 194 -27 285 -83 308 -280 544 -529 632 -93 32 -269 41 -363 17z" id="svg_2" fill="#ffffff" fill-opacity="1"/>
<path d="M1602 4400 c-319 -58 -580 -359 -648 -751 -24 -136 -15 -350 20 -482 64 -249 222 -469 416 -580 25 -14 81 -38 125 -53 69 -24 96 -27 195 -28 98 0 127 4 195 27 112 37 197 90 286 177 331 325 390 892 136 1323 -53 90 -192 230 -277 280 -130 75 -313 111 -448 87z" id="svg_3" fill="#ffffff" fill-opacity="1"/>
<path d="M4070 2416 c-19 -7 -83 -33 -141 -58 -213 -93 -366 -123 -569 -115 -156 7 -275 33 -425 93 -11 4 27 -39 85 -97 121 -119 199 -220 295 -379 212 -351 290 -634 222 -801 -67 -161 -173 -223 -470 -276 -94 -17 -142 -29 -130 -34 99 -37 668 -47 862 -16 151 25 309 67 541 146 113 38 241 76 285 85 44 9 129 25 189 36 292 55 361 178 262 469 -103 301 -300 602 -521 795 -144 126 -234 166 -368 166 -45 -1 -98 -7 -117 -14z" id="svg_4" fill="#ffffff" fill-opacity="1"/>
<path d="M823 2355 c-114 -32 -204 -97 -361 -260 -184 -191 -331 -434 -418 -690 -32 -92 -38 -124 -38 -195 -1 -75 2 -90 26 -131 16 -28 47 -59 75 -77 47 -30 156 -65 243 -77 127 -18 226 -43 440 -115 408 -136 492 -151 865 -157 418 -7 552 15 975 157 184 62 272 86 400 109 190 33 260 57 318 106 112 96 94 277 -59 595 -109 226 -261 429 -436 582 -101 89 -173 131 -264 154 -101 26 -175 15 -311 -45 -224 -99 -372 -134 -568 -134 -195 0 -336 34 -574 138 -91 39 -121 48 -185 51 -48 3 -95 -1 -128 -11z" id="svg_5" fill="#ffffff" fill-opacity="1"/>
</g></g></svg>