<svg xmlns="http://www.w3.org/2000/svg" version="1.0" width="512.000000" height="512.000000" preserveAspectRatio="xMidYMid meet"><rect id="backgroundrect" width="100%" height="100%" x="0" y="0" fill="none" stroke="none"/>


<g class="currentLayer" style=""><title>Layer 1</title><g transform="translate(0,512) scale(0.10000000149011612,-0.10000000149011612) " fill="#ffffff" stroke="none" id="svg_1" class="selected" fill-opacity="1">
<path d="M1704 4731 c-304 -75 -553 -353 -644 -720 -116 -467 57 -982 407 -1214 296 -196 643 -162 913 90 214 200 330 490 330 823 0 325 -112 614 -317 815 -190 188 -449 265 -689 206z" id="svg_2" fill="#ffffff" fill-opacity="1"/>
<path d="M4220 2704 c-78 -20 -206 -86 -268 -137 -154 -128 -250 -300 -271 -490 -9 -77 -2 -194 15 -261 6 -27 -18 -53 -453 -490 l-461 -461 15 -230 c8 -126 16 -231 17 -232 3 -3 406 -33 442 -33 20 0 23 8 34 114 l13 114 31 6 c17 3 73 11 124 17 61 8 92 16 92 24 0 56 23 221 32 226 6 4 56 13 111 20 54 7 105 18 111 25 7 6 19 58 26 113 7 56 18 105 23 108 5 3 59 12 120 19 l111 14 66 64 65 64 70 -15 c111 -24 259 -5 381 48 84 37 208 125 277 198 141 150 203 361 166 567 -56 319 -251 532 -552 604 -98 24 -255 26 -337 4z m418 -224 c90 -45 197 -151 241 -242 98 -198 1 -364 -191 -328 -261 49 -479 394 -345 547 45 51 80 64 160 60 50 -3 84 -13 135 -37z" id="svg_3" fill="#ffffff" fill-opacity="1"/>
<path d="M922 2515 c-79 -17 -170 -64 -247 -125 -75 -59 -245 -235 -306 -315 -131 -171 -254 -403 -325 -610 -32 -95 -37 -123 -38 -205 -1 -87 1 -99 27 -143 49 -83 156 -136 326 -163 176 -28 284 -55 506 -130 237 -81 392 -123 550 -151 83 -15 160 -18 445 -18 234 0 372 4 430 13 94 14 336 70 360 82 11 6 14 27 11 92 l-3 84 441 435 c243 240 441 440 441 446 0 5 -25 50 -56 99 -158 252 -390 489 -557 570 -140 67 -257 66 -410 -2 -45 -19 -123 -51 -174 -70 -349 -128 -662 -121 -1007 23 -61 25 -136 56 -166 69 -72 29 -168 37 -248 19z" id="svg_4" fill="#ffffff" fill-opacity="1"/>
</g></g></svg>