<svg xmlns="http://www.w3.org/2000/svg" version="1.0" width="512.000000" height="512.000000" preserveAspectRatio="xMidYMid meet"><rect id="backgroundrect" width="100%" height="100%" x="0" y="0" fill="none" stroke="none"/>


<g class="currentLayer" style=""><title>Layer 1</title><g transform="translate(0,512) scale(0.10000000149011612,-0.10000000149011612) " fill="#3f51b5" stroke="none" id="svg_1" class="" fill-opacity="1">
<path d="M1700 4729 c-253 -65 -473 -271 -586 -549 -204 -502 -47 -1118 353 -1383 495 -328 1110 21 1228 697 19 112 19 318 0 429 -85 486 -428 829 -829 826 -56 0 -120 -8 -166 -20z" id="svg_2" fill="#3f51b5"/>
<path d="M3733 2706 c-302 -58 -594 -247 -763 -495 -234 -346 -268 -805 -85 -1177 260 -531 853 -786 1417 -608 689 218 1017 1010 686 1657 -154 300 -425 517 -755 604 -82 21 -126 26 -263 29 -112 2 -188 -1 -237 -10z m329 -491 c97 -20 151 -47 214 -107 78 -73 114 -150 114 -243 0 -113 -26 -156 -182 -306 l-131 -126 -4 -99 c-4 -74 -9 -102 -21 -111 -20 -16 -205 -18 -233 -3 -16 9 -19 21 -19 73 1 95 17 203 39 252 12 26 47 70 87 107 186 173 184 172 184 215 0 46 -26 85 -70 108 -37 19 -130 19 -175 1 -40 -17 -92 -85 -101 -133 -4 -19 -13 -37 -21 -40 -21 -8 -226 17 -241 30 -18 15 -8 87 23 155 83 183 304 277 537 227z m-47 -1099 c39 -26 59 -64 59 -115 0 -81 -54 -135 -137 -135 -144 0 -186 189 -56 257 39 21 96 18 134 -7z" id="svg_3" fill="#3f51b5"/>
<path d="M924 2516 c-66 -15 -143 -51 -213 -99 -63 -43 -243 -219 -314 -307 -142 -176 -279 -427 -353 -645 -32 -95 -37 -123 -38 -205 -1 -87 1 -99 27 -143 49 -83 156 -136 326 -163 177 -28 284 -56 536 -140 417 -140 563 -164 975 -164 301 0 429 12 630 60 122 30 340 97 340 106 0 2 -12 23 -27 47 -45 71 -112 222 -139 314 -123 424 -33 869 243 1197 l64 77 -62 29 c-133 63 -252 61 -402 -5 -452 -201 -782 -214 -1181 -48 -61 25 -136 56 -166 69 -72 29 -168 37 -246 20z" id="svg_4" fill="#3f51b5"/>
</g></g></svg>