<svg xmlns="http://www.w3.org/2000/svg" version="1.0" width="512.000000" height="512.000000" preserveAspectRatio="xMidYMid meet"><rect id="backgroundrect" width="100%" height="100%" x="0" y="0" fill="none" stroke="none"/>


<g class="currentLayer" style=""><title>Layer 1</title><g transform="translate(0,512) scale(0.10000000149011612,-0.10000000149011612) " fill="#ffffff" stroke="none" id="svg_1" class="selected" fill-opacity="1">
<path d="M1704 4731 c-252 -62 -476 -272 -590 -551 -255 -627 56 -1378 618 -1494 231 -48 456 22 648 201 214 200 330 490 330 823 0 325 -112 614 -317 815 -190 188 -449 265 -689 206z" id="svg_2" fill="#ffffff" fill-opacity="1"/>
<path d="M3733 2706 c-302 -58 -594 -247 -763 -495 -234 -346 -268 -805 -85 -1177 260 -531 853 -786 1417 -608 612 193 957 859 762 1474 -121 385 -436 683 -831 787 -82 21 -126 26 -263 29 -112 2 -188 -1 -237 -10z m405 -698 l2 -268 268 -2 267 -3 3 -170 c1 -93 0 -180 -3 -192 l-5 -23 -265 0 -265 0 -2 -267 -3 -268 -184 -3 c-127 -2 -188 1 -197 9 -11 9 -14 62 -14 270 l0 259 -262 2 -263 3 -3 193 -2 192 265 0 265 0 0 258 c0 190 3 261 12 270 9 9 62 12 198 10 l185 -3 3 -267z" id="svg_3" fill="#ffffff" fill-opacity="1"/>
<path d="M922 2515 c-79 -17 -170 -64 -247 -125 -75 -59 -245 -235 -306 -315 -131 -171 -254 -403 -325 -610 -32 -95 -37 -123 -38 -205 -1 -87 1 -99 27 -142 52 -89 168 -143 371 -172 149 -22 231 -44 506 -137 399 -134 551 -159 960 -159 301 0 429 12 630 60 104 25 327 93 352 107 4 2 -20 54 -52 116 -116 221 -168 445 -156 677 3 69 13 157 20 196 40 198 143 408 277 566 27 31 49 61 49 66 0 16 -133 71 -203 82 -87 15 -161 3 -270 -46 -45 -19 -123 -51 -174 -70 -349 -128 -662 -121 -1007 23 -61 25 -136 56 -166 69 -72 29 -168 37 -248 19z" id="svg_4" fill="#ffffff" fill-opacity="1"/>
</g></g></svg>